<?xml version="1.0" standalone="no"?>
<!DOCTYPE svg PUBLIC "-//W3C//DTD SVG 20010904//EN"
 "http://www.w3.org/TR/2001/REC-SVG-20010904/DTD/svg10.dtd">
<svg version="1.0" xmlns="http://www.w3.org/2000/svg"
 width="100.000000pt" height="98.000000pt" viewBox="0 0 100.000000 98.000000"
 preserveAspectRatio="xMidYMid meet">

<g transform="translate(0.000000,98.000000) scale(0.100000,-0.100000)"
fill="#000000" stroke="none">
<path d="M448 953 c-14 -9 -31 -27 -37 -40 -49 -108 74 -202 161 -124 28 25
33 36 33 75 0 36 -6 51 -26 72 -33 33 -94 41 -131 17z"/>
<path d="M75 706 c-16 -12 -18 -18 -9 -33 11 -18 32 -27 87 -38 15 -3 27 -10
27 -15 0 -13 -47 -13 -55 0 -8 12 -65 13 -65 1 0 -22 36 -36 96 -35 69 1 97
15 92 48 -2 17 -15 24 -60 35 -32 7 -58 17 -58 22 0 12 47 11 55 -1 3 -5 17
-10 31 -10 19 0 25 5 22 18 -4 24 -133 30 -163 8z"/>
<path d="M280 650 l0 -70 85 0 c69 0 85 3 85 15 0 12 -13 15 -55 15 -42 0 -55
3 -55 15 0 11 12 15 51 15 66 0 62 24 -4 28 -63 4 -60 22 3 22 38 0 50 4 50
15 0 12 -16 15 -80 15 l-80 0 0 -70z"/>
<path d="M480 650 l0 -70 30 0 c29 0 30 2 30 46 l0 47 41 -47 c35 -40 46 -46
80 -46 l39 0 0 70 0 70 -30 0 c-29 0 -30 -2 -30 -45 l0 -45 -41 45 c-36 38
-47 45 -80 45 l-39 0 0 -70z"/>
<path d="M757 650 l-48 -70 29 0 c16 0 35 7 42 15 7 9 29 15 55 15 26 0 48 -6
55 -15 13 -16 74 -21 68 -7 -1 5 -21 36 -43 70 -36 56 -43 62 -75 62 -32 0
-39 -6 -83 -70z m103 -1 c0 -5 -11 -9 -25 -9 -23 0 -24 2 -15 21 9 16 14 18
26 8 8 -6 14 -15 14 -20z"/>
<path d="M10 505 l0 -35 145 0 c121 0 147 -3 151 -15 4 -9 -30 -79 -80 -166
-47 -84 -86 -155 -86 -159 0 -9 49 -55 53 -49 2 2 16 25 31 51 14 26 74 129
131 228 l104 180 -224 0 -225 0 0 -35z"/>
<path d="M552 532 c19 -48 253 -442 263 -442 13 0 45 31 45 44 0 5 -39 75 -86
157 -49 85 -84 156 -80 164 4 12 31 15 151 15 l145 0 0 35 0 35 -221 0 c-121
0 -219 -4 -217 -8z"/>
<path d="M378 257 c-64 -111 -117 -206 -116 -212 0 -5 14 -15 29 -22 l28 -12
83 140 c53 90 88 139 99 139 11 0 45 -49 99 -140 45 -77 84 -140 86 -140 3 0
19 7 35 16 l30 15 -28 48 c-176 300 -219 371 -223 371 -3 0 -58 -91 -122 -203z"/>
</g>
</svg>
